<svg width="21" height="21" viewBox="0 0 21 21" fill="none" xmlns="http://www.w3.org/2000/svg">
<g clip-path="url(#clip0_1_109)">
<path d="M20.8718 10.1907L14.3093 3.62818C14.1384 3.45727 13.8616 3.45727 13.6907 3.62818C13.5198 3.7991 13.5198 4.07595 13.6907 4.24682L19.5064 10.0625H0.437514C0.195686 10.0625 0 10.2582 0 10.5C0 10.7419 0.195686 10.9375 0.437514 10.9375H19.5064L13.6907 16.7532C13.5198 16.9241 13.5198 17.201 13.6907 17.3718C13.7761 17.4573 13.8881 17.5 14 17.5C14.112 17.5 14.2239 17.4573 14.3094 17.3718L20.8719 10.8093C21.0427 10.6385 21.0427 10.3616 20.8718 10.1907Z" fill="white"/>
</g>
<defs>
<clipPath id="clip0_1_109">
<rect width="21" height="21" fill="white"/>
</clipPath>
</defs>
</svg>
