<svg width="21" height="21" viewBox="0 0 21 21" fill="none" xmlns="http://www.w3.org/2000/svg">
<g clip-path="url(#clip0_1_35)">
<path d="M17.5396 6.20459H3.46004C3.06461 6.20459 2.74411 6.52509 2.74411 6.92052V18.8523C2.74411 20.0367 3.70773 21.0001 4.89185 21.0001H16.1078C17.2921 21.0001 18.2555 20.0367 18.2555 18.8523V6.92048C18.2555 6.52509 17.935 6.20459 17.5396 6.20459ZM16.8237 18.8523C16.8237 19.247 16.5025 19.5682 16.1077 19.5682H4.89185C4.49716 19.5682 4.17592 19.247 4.17592 18.8523V7.6364H16.8237V18.8523Z" fill="white"/>
<path d="M10.6193 0C8.25082 0 6.32382 1.927 6.32382 4.29544V10.2614C6.32382 10.6568 6.64432 10.9773 7.03975 10.9773C7.43518 10.9773 7.75568 10.6568 7.75568 10.2614V4.29544C7.75568 2.71638 9.04025 1.43181 10.6193 1.43181C12.1984 1.43181 13.4829 2.71638 13.4829 4.29544V10.2614C13.4829 10.6568 13.8034 10.9773 14.1989 10.9773C14.5943 10.9773 14.9148 10.6568 14.9148 10.2614V4.29544C14.9147 1.927 12.9878 0 10.6193 0Z" fill="white"/>
</g>
<defs>
<clipPath id="clip0_1_35">
<rect width="21" height="21" fill="white"/>
</clipPath>
</defs>
</svg>
