<svg width="15" height="15" viewBox="0 0 15 15" fill="none" xmlns="http://www.w3.org/2000/svg">
<g clip-path="url(#clip0_1_233)">
<path d="M7.52952 8.64271C8.16053 8.64271 8.67207 8.13117 8.67207 7.50016C8.67207 6.86914 8.16053 6.3576 7.52952 6.3576C6.8985 6.3576 6.38696 6.86914 6.38696 7.50016C6.38696 8.13117 6.8985 8.64271 7.52952 8.64271Z" fill="#E20036"/>
<path d="M7.52977 4.16022C5.68822 4.16022 4.19 5.65844 4.19 7.49999C4.19 9.34154 5.68822 10.8398 7.52977 10.8398C9.37132 10.8398 10.8695 9.34154 10.8695 7.49999C10.8695 5.65844 9.37132 4.16022 7.52977 4.16022ZM7.52977 9.6679C6.33437 9.6679 5.36185 8.69539 5.36185 7.49999C5.36185 6.30458 6.33437 5.33207 7.52977 5.33207C8.72518 5.33207 9.69769 6.30458 9.69769 7.49999C9.69769 8.69539 8.72518 9.6679 7.52977 9.6679Z" fill="#E20036"/>
<path d="M14.6206 6.2211C14.3096 5.74338 13.4317 4.51698 12.0029 3.44863C10.5545 2.36567 9.04399 1.81653 7.51325 1.81653C5.98468 1.81653 4.47284 2.36418 3.01971 3.44421C1.58451 4.51091 0.699653 5.73579 0.385823 6.21289C-0.128486 6.9948 -0.128486 8.00522 0.385823 8.78713C0.699653 9.26426 1.58451 10.4891 3.01971 11.5558C4.47284 12.6359 5.98465 13.1835 7.51325 13.1835C9.86654 13.1835 11.7589 11.8714 12.9319 10.7707C13.1679 10.5492 13.1797 10.1784 12.9583 9.94246C12.7368 9.70644 12.3661 9.69466 12.1301 9.91609C11.1112 10.8721 9.48321 12.0117 7.5132 12.0117C4.66834 12.0117 2.30987 9.58002 1.36478 8.14318C1.10779 7.75248 1.10779 7.24763 1.36478 6.85693C2.30987 5.42009 4.66834 2.98844 7.5132 2.98844C10.358 2.98844 12.702 5.42243 13.6386 6.86062C13.8916 7.24907 13.8916 7.75104 13.6386 8.13949C13.4621 8.41066 13.5387 8.77362 13.8099 8.95023C14.0811 9.1268 14.4441 9.05016 14.6206 8.77896C15.1266 8.00203 15.1266 6.99799 14.6206 6.2211Z" fill="#E20036"/>
</g>
<defs>
<clipPath id="clip0_1_233">
<rect width="15" height="15" fill="white"/>
</clipPath>
</defs>
</svg>
