<svg width="21" height="15" viewBox="0 0 21 15" fill="none" xmlns="http://www.w3.org/2000/svg">
<path d="M0.128174 7.19069L6.69067 0.628184C6.86159 0.457272 7.13844 0.457272 7.30931 0.628184C7.48022 0.799096 7.48022 1.07595 7.30931 1.24682L1.49362 7.06251H20.5625C20.8043 7.06251 21 7.2582 21 7.50003C21 7.74185 20.8043 7.93754 20.5625 7.93754H1.49362L7.30931 13.7532C7.48022 13.9241 7.48022 14.201 7.30931 14.3718C7.22388 14.4573 7.1119 14.5 6.99997 14.5C6.88804 14.5 6.77611 14.4573 6.69063 14.3718L0.128132 7.80932C-0.042738 7.63845 -0.042738 7.3616 0.128174 7.19069Z" fill="white"/>
</svg>
