<svg width="46" height="46" viewBox="0 0 46 46" fill="none" xmlns="http://www.w3.org/2000/svg">
<g clip-path="url(#clip0_1_213)">
<path d="M19.6721 34.0543C19.4775 34.0543 19.2815 34.0119 19.0982 33.9267C18.6227 33.7039 18.3188 33.2259 18.3188 32.7007V13.2993C18.3188 12.7741 18.6226 12.2961 19.0982 12.0733C19.5734 11.8506 20.136 11.9231 20.5389 12.2594L32.1797 21.9601C32.4885 22.2175 32.6669 22.5981 32.6669 23C32.6669 23.4018 32.4886 23.7825 32.1797 24.0399L20.5389 33.7406C20.2911 33.9471 19.9831 34.0543 19.6721 34.0543ZM21.0261 16.1891V29.8109L29.199 23L21.0261 16.1891Z" fill="white"/>
<path d="M22.9603 46.0005C19.1064 46.0012 15.23 45.0396 11.7192 43.0628C11.0678 42.6962 10.8369 41.8706 11.2039 41.2193C11.5701 40.5679 12.3957 40.3366 13.0475 40.704C20.9448 45.1496 30.9416 43.7749 37.357 37.3573C45.2733 29.4409 45.2733 16.5608 37.357 8.64441C29.4406 0.726697 16.5594 0.727402 8.64342 8.64441C0.72742 16.5608 0.72742 29.4409 8.64342 37.3573C9.17213 37.886 9.17213 38.7434 8.64342 39.2721C8.11542 39.8008 7.2581 39.8008 6.72939 39.2721C-2.24232 30.2997 -2.24232 15.7021 6.72939 6.72967C15.7015 -2.24133 30.2987 -2.24203 39.2718 6.72967C48.2435 15.7021 48.2435 30.2997 39.2718 39.2721C34.8521 43.6916 28.9329 46.0005 22.9603 46.0005Z" fill="white"/>
</g>
<defs>
<clipPath id="clip0_1_213">
<rect width="46" height="46" fill="white"/>
</clipPath>
</defs>
</svg>
