<svg width="21" height="15" viewBox="0 0 21 15" fill="none" xmlns="http://www.w3.org/2000/svg">
<path d="M20.8718 7.19069L14.3093 0.628184C14.1384 0.457272 13.8616 0.457272 13.6907 0.628184C13.5198 0.799096 13.5198 1.07595 13.6907 1.24682L19.5064 7.06251H0.437514C0.195686 7.06251 0 7.2582 0 7.50003C0 7.74185 0.195686 7.93754 0.437514 7.93754H19.5064L13.6907 13.7532C13.5198 13.9241 13.5198 14.201 13.6907 14.3718C13.7761 14.4573 13.8881 14.5 14 14.5C14.112 14.5 14.2239 14.4573 14.3094 14.3718L20.8719 7.80932C21.0427 7.63845 21.0427 7.3616 20.8718 7.19069Z" fill="white"/>
</svg>
